<svg width="99" height="98" viewBox="0 0 99 98" fill="none" xmlns="http://www.w3.org/2000/svg">
<path d="M59.8877 49.8L95.9877 13.7C98.7877 10.9 98.7877 6.4 95.9877 3.6C94.6877 2.3 92.8877 1.5 90.9877 1.5C89.0877 1.5 87.2877 2.2 85.9877 3.6L49.7877 39.7L12.1877 2.1C10.8877 0.8 9.08766 0 7.18766 0C5.28766 0 3.48766 0.7 2.18766 2.1C-0.712336 4.9 -0.712336 9.4 2.08766 12.2L39.6877 49.8L3.58766 85.9C2.28766 87.2 1.48766 89 1.48766 90.9C1.48766 92.8 2.18766 94.6 3.58766 95.9C4.88766 97.2 6.68766 98 8.58766 98C10.4877 98 12.2877 97.3 13.5877 95.9L49.6877 59.8L84.3877 94.5C85.6877 95.8 87.4877 96.6 89.3877 96.6C91.2877 96.6 93.0877 95.9 94.3877 94.5C95.6877 93.2 96.4877 91.4 96.4877 89.5C96.4877 87.6 95.7877 85.8 94.3877 84.5L59.8877 49.8Z" fill="black"/>
</svg>
